<?xml version="1.0" encoding="utf-8"?>
<!-- Generator: Adobe Illustrator 18.1.0, SVG Export Plug-In . SVG Version: 6.00 Build 0)  -->
<svg version="1.1" id="Layer_1" xmlns="http://www.w3.org/2000/svg" xmlns:xlink="http://www.w3.org/1999/xlink" x="0px" y="0px"
	 width="46px" height="46px" viewBox="0 0 46 46" enable-background="new 0 0 46 46" xml:space="preserve">
<path fill="#E05960" d="M27.76,16.744l-4.551,4.515l-4.551-4.515l-1.408,1.42l4.539,4.503L17.25,27.17l1.408,1.42l4.551-4.515
	l4.551,4.515l1.408-1.42l-4.539-4.503l4.539-4.503L27.76,16.744z M23,10.193c-7.062,0-12.808,5.745-12.808,12.807
	c0,7.062,5.745,12.808,12.808,12.808c7.062,0,12.807-5.745,12.807-12.808C35.807,15.938,30.062,10.193,23,10.193z M23,33.807
	c-5.959,0-10.808-4.849-10.808-10.808S17.042,12.193,23,12.193S33.807,17.041,33.807,23S28.959,33.807,23,33.807z"/>
</svg>
