<svg xmlns="http://www.w3.org/2000/svg" viewBox="0 0 190.8 28.6"><path d="M34.9 10h2.8c3.3 0 4.9 1.9 4.9 4.6v.1c0 2.7-1.6 4.7-4.9 4.7h-2.8V10zm2.8 8c2.1 0 3.1-1.2 3.1-3.3v-.1c0-2-.9-3.2-3.1-3.2h-1V18h1zM44.2 10.4c0-.5.4-.9.9-.9s.9.4.9.9-.4.9-.9.9-.9-.3-.9-.9zm.2 2.1H46v6.9h-1.6v-6.9zM48 12.5h1.6v1.3c.4-.9 1.1-1.4 2.2-1.4v1.5c-1.4 0-2.2.5-2.2 1.9v3.6H48v-6.9zM52.8 16v-.1c0-2.1 1.5-3.5 3.4-3.5 1.7 0 3.2 1 3.2 3.5v.5h-5c.1 1.3.7 2 1.9 2 1 0 1.5-.4 1.6-1h1.5c-.2 1.4-1.4 2.2-3.1 2.2-2.1-.1-3.5-1.5-3.5-3.6zm5-.8c-.1-1.2-.7-1.7-1.7-1.7s-1.6.6-1.8 1.7h3.5zM61.1 9.3h1.6v6.2l2.5-3h1.7l-2.7 3.1 2.9 3.7h-1.8L62.7 16v3.4h-1.6V9.3zM68.8 17.4v-3.8h-.9v-1.2h.9V11h1.6v1.5h1.5v1.2h-1.5v3.6c0 .6.3.9.8.9.3 0 .6 0 .8-.1v1.3c-.2.1-.6.2-1.1.2-1.4-.2-2.1-.9-2.1-2.2zM73 16v-.1c0-2.1 1.5-3.5 3.5-3.5s3.5 1.4 3.5 3.5v.1c0 2.1-1.5 3.5-3.5 3.5S73 18.1 73 16zm5.4-.1c0-1.5-.7-2.4-1.9-2.4s-1.9.9-1.9 2.3v.1c0 1.4.7 2.3 1.9 2.3s1.9-.8 1.9-2.3zM81.6 12.5h1.6v1.3c.4-.9 1.1-1.4 2.2-1.4v1.5c-1.4 0-2.2.5-2.2 1.9v3.6h-1.6v-6.9zM86.4 17.4c0-1.6 1.5-2.2 3.5-2.2h.9v-.4c0-.9-.3-1.4-1.2-1.4-.8 0-1.2.4-1.3 1.1h-1.5c.1-1.6 1.4-2.3 2.9-2.3s2.7.6 2.7 2.5v4.5h-1.6v-.8c-.4.6-1 1-2.1 1-1.2.1-2.3-.5-2.3-2zm4.4-.5v-.7H90c-1.2 0-2 .3-2 1.1 0 .6.3 1 1.1 1 1 0 1.7-.5 1.7-1.4zM94.5 17.4v-3.8h-.9v-1.2h.9V11h1.6v1.5h1.5v1.2h-1.5v3.6c0 .6.3.9.8.9.3 0 .6 0 .8-.1v1.3c-.2.1-.6.2-1.1.2-1.3-.2-2.1-.9-2.1-2.2zM98.7 16v-.1c0-2.1 1.5-3.5 3.4-3.5 1.7 0 3.2 1 3.2 3.5v.5h-5c.1 1.3.7 2 1.9 2 1 0 1.5-.4 1.6-1h1.5c-.2 1.4-1.4 2.2-3.1 2.2-2-.1-3.5-1.5-3.5-3.6zm5.1-.8c-.1-1.2-.7-1.7-1.7-1.7s-1.6.6-1.8 1.7h3.5zM107.2 17.4v-3.8h-.9v-1.2h.9V11h1.6v1.5h1.5v1.2h-1.5v3.6c0 .6.3.9.8.9.3 0 .6 0 .8-.1v1.3c-.2.1-.6.2-1.1.2-1.4-.2-2.1-.9-2.1-2.2zM115.7 13.7h-.9v-1.2h.9v-.9c0-1.5.8-2.3 2.3-2.3.4 0 .6 0 .9.1v1.2c-.2-.1-.4-.1-.7-.1-.6 0-.9.4-.9 1v1h1.6v1.2h-1.6v5.7h-1.6v-5.7zM119.7 16v-.1c0-2.1 1.5-3.5 3.5-3.5s3.5 1.4 3.5 3.5v.1c0 2.1-1.5 3.5-3.5 3.5s-3.5-1.4-3.5-3.5zm5.4-.1c0-1.5-.7-2.4-1.9-2.4s-1.9.9-1.9 2.3v.1c0 1.4.7 2.3 1.9 2.3s1.9-.8 1.9-2.3zM128.3 12.5h1.6v1.3c.4-.9 1.1-1.4 2.2-1.4v1.5c-1.4 0-2.2.5-2.2 1.9v3.6h-1.6v-6.9zM136.7 16v-.1c0-2.1 1.5-3.5 3.4-3.5 1.7 0 3.2 1 3.2 3.5v.5h-5c.1 1.3.7 2 1.9 2 1 0 1.5-.4 1.6-1h1.5c-.2 1.4-1.4 2.2-3.1 2.2-2-.1-3.5-1.5-3.5-3.6zm5.1-.8c-.1-1.2-.7-1.7-1.7-1.7s-1.6.6-1.8 1.7h3.5zM145 15h3.1v1.3H145V15zM150 9.3h1.6v4.3c.3-.7 1.1-1.2 2.2-1.2 1.4 0 2.3.8 2.3 2.7v4.3h-1.6v-4.2c0-1-.4-1.5-1.4-1.5-.9 0-1.6.6-1.6 1.6v4H150v-10zM157.7 16v-.1c0-2.1 1.5-3.5 3.4-3.5 1.7 0 3.2 1 3.2 3.5v.5h-5c.1 1.3.7 2 1.9 2 1 0 1.5-.4 1.6-1h1.5c-.2 1.4-1.4 2.2-3.1 2.2-2-.1-3.5-1.5-3.5-3.6zm5.1-.8c-.1-1.2-.7-1.7-1.7-1.7s-1.6.6-1.8 1.7h3.5zM166.1 9.3h1.6v10h-1.6v-10zM169.3 17.2h1.5c.1.7.4 1.1 1.4 1.1.9 0 1.2-.3 1.2-.9 0-.6-.5-.8-1.5-.9-1.8-.3-2.5-.8-2.5-2.1 0-1.4 1.3-2.1 2.6-2.1 1.4 0 2.5.5 2.7 2.1h-1.5c-.1-.6-.5-.9-1.2-.9s-1.1.3-1.1.8.3.7 1.4.9c1.6.2 2.6.6 2.6 2.1 0 1.4-1 2.2-2.7 2.2-1.8 0-2.9-.9-2.9-2.3zM176.1 16v-.1c0-2.1 1.5-3.5 3.4-3.5 1.7 0 3.2 1 3.2 3.5v.5h-5c.1 1.3.7 2 1.9 2 1 0 1.5-.4 1.6-1h1.5c-.2 1.4-1.4 2.2-3.1 2.2-2.1-.1-3.5-1.5-3.5-3.6zm5-.8c-.1-1.2-.7-1.7-1.7-1.7s-1.6.6-1.8 1.7h3.5z"/><g><path d="M21 17.6h3.1v3.1H21zM21 12.8h3.1v3.1H21zM15.5 12.8h3.1v3.1h-3.1zM25.8 12.8h3.1v3.1h-3.1zM21 8h3.1v3.1H21z"/><ellipse cx="27.3" cy="19.1" rx="1.6" ry="1.6"/><ellipse cx="13.6" cy="19.1" rx="1.6" ry="1.6"/><ellipse cx="27.3" cy="9.6" rx="1.6" ry="1.6"/><ellipse cx="9.4" cy="9.6" rx="1.6" ry="1.6"/></g></svg>