<?xml version="1.0" encoding="utf-8"?>
<!-- Generator: Adobe Illustrator 18.1.1, SVG Export Plug-In . SVG Version: 6.00 Build 0)  -->
<!DOCTYPE svg PUBLIC "-//W3C//DTD SVG 1.1//EN" "http://www.w3.org/Graphics/SVG/1.1/DTD/svg11.dtd">
<svg version="1.1" id="artwork" xmlns="http://www.w3.org/2000/svg" xmlns:xlink="http://www.w3.org/1999/xlink" x="0px" y="0px"
	 viewBox="0 0 190.8 28.6" enable-background="new 0 0 190.8 28.6" xml:space="preserve">
<g>
	<g>
		<path d="M34.9,10h2.8c3.3,0,4.9,1.9,4.9,4.6v0.1c0,2.7-1.6,4.7-4.9,4.7h-2.8V10z M37.7,18c2.1,0,3.1-1.2,3.1-3.3v-0.1
			c0-2-0.9-3.2-3.1-3.2h-1V18H37.7z"/>
		<path d="M44.2,10.4c0-0.5,0.4-0.9,0.9-0.9c0.5,0,0.9,0.4,0.9,0.9c0,0.5-0.4,0.9-0.9,0.9C44.6,11.3,44.2,11,44.2,10.4z M44.4,12.5
			H46v6.9h-1.6V12.5z"/>
		<path d="M48,12.5h1.6v1.3c0.4-0.9,1.1-1.4,2.2-1.4v1.5c-1.4,0-2.2,0.5-2.2,1.9v3.6H48V12.5z"/>
		<path d="M52.8,16v-0.1c0-2.1,1.5-3.5,3.4-3.5c1.7,0,3.2,1,3.2,3.5v0.5h-5c0.1,1.3,0.7,2,1.9,2c1,0,1.5-0.4,1.6-1h1.5
			c-0.2,1.4-1.4,2.2-3.1,2.2C54.2,19.5,52.8,18.1,52.8,16z M57.8,15.2c-0.1-1.2-0.7-1.7-1.7-1.7c-1,0-1.6,0.6-1.8,1.7H57.8z"/>
		<path d="M61.1,9.3h1.6v6.2l2.5-3h1.7l-2.7,3.1l2.9,3.7h-1.8L62.7,16v3.4h-1.6V9.3z"/>
		<path d="M68.8,17.4v-3.8h-0.9v-1.2h0.9V11h1.6v1.5h1.5v1.2h-1.5v3.6c0,0.6,0.3,0.9,0.8,0.9c0.3,0,0.6,0,0.8-0.1v1.3
			c-0.2,0.1-0.6,0.2-1.1,0.2C69.5,19.4,68.8,18.7,68.8,17.4z"/>
		<path d="M73,16v-0.1c0-2.1,1.5-3.5,3.5-3.5c2,0,3.5,1.4,3.5,3.5v0.1c0,2.1-1.5,3.5-3.5,3.5C74.5,19.5,73,18.1,73,16z M78.4,15.9
			L78.4,15.9c0-1.5-0.7-2.4-1.9-2.4s-1.9,0.9-1.9,2.3v0.1c0,1.4,0.7,2.3,1.9,2.3C77.7,18.2,78.4,17.4,78.4,15.9z"/>
		<path d="M81.6,12.5h1.6v1.3c0.4-0.9,1.1-1.4,2.2-1.4v1.5c-1.4,0-2.2,0.5-2.2,1.9v3.6h-1.6V12.5z"/>
		<path d="M86.4,17.4c0-1.6,1.5-2.2,3.5-2.2h0.9v-0.4c0-0.9-0.3-1.4-1.2-1.4c-0.8,0-1.2,0.4-1.3,1.1h-1.5c0.1-1.6,1.4-2.3,2.9-2.3
			c1.5,0,2.7,0.6,2.7,2.5v4.5h-1.6v-0.8c-0.4,0.6-1,1-2.1,1C87.5,19.5,86.4,18.9,86.4,17.4z M90.8,16.9v-0.7H90c-1.2,0-2,0.3-2,1.1
			c0,0.6,0.3,1,1.1,1C90.1,18.3,90.8,17.8,90.8,16.9z"/>
		<path d="M94.5,17.4v-3.8h-0.9v-1.2h0.9V11h1.6v1.5h1.5v1.2h-1.5v3.6c0,0.6,0.3,0.9,0.8,0.9c0.3,0,0.6,0,0.8-0.1v1.3
			c-0.2,0.1-0.6,0.2-1.1,0.2C95.3,19.4,94.5,18.7,94.5,17.4z"/>
		<path d="M98.7,16v-0.1c0-2.1,1.5-3.5,3.4-3.5c1.7,0,3.2,1,3.2,3.5v0.5h-5c0.1,1.3,0.7,2,1.9,2c1,0,1.5-0.4,1.6-1h1.5
			c-0.2,1.4-1.4,2.2-3.1,2.2C100.2,19.5,98.7,18.1,98.7,16z M103.8,15.2c-0.1-1.2-0.7-1.7-1.7-1.7c-1,0-1.6,0.6-1.8,1.7H103.8z"/>
		<path d="M107.2,17.4v-3.8h-0.9v-1.2h0.9V11h1.6v1.5h1.5v1.2h-1.5v3.6c0,0.6,0.3,0.9,0.8,0.9c0.3,0,0.6,0,0.8-0.1v1.3
			c-0.2,0.1-0.6,0.2-1.1,0.2C107.9,19.4,107.2,18.7,107.2,17.4z"/>
		<path d="M115.7,13.7h-0.9v-1.2h0.9v-0.9c0-1.5,0.8-2.3,2.3-2.3c0.4,0,0.6,0,0.9,0.1v1.2c-0.2-0.1-0.4-0.1-0.7-0.1
			c-0.6,0-0.9,0.4-0.9,1v1h1.6v1.2h-1.6v5.7h-1.6V13.7z"/>
		<path d="M119.7,16v-0.1c0-2.1,1.5-3.5,3.5-3.5c2,0,3.5,1.4,3.5,3.5v0.1c0,2.1-1.5,3.5-3.5,3.5C121.2,19.5,119.7,18.1,119.7,16z
			 M125.1,15.9L125.1,15.9c0-1.5-0.7-2.4-1.9-2.4c-1.2,0-1.9,0.9-1.9,2.3v0.1c0,1.4,0.7,2.3,1.9,2.3
			C124.4,18.2,125.1,17.4,125.1,15.9z"/>
		<path d="M128.3,12.5h1.6v1.3c0.4-0.9,1.1-1.4,2.2-1.4v1.5c-1.4,0-2.2,0.5-2.2,1.9v3.6h-1.6V12.5z"/>
		<path d="M136.7,16v-0.1c0-2.1,1.5-3.5,3.4-3.5c1.7,0,3.2,1,3.2,3.5v0.5h-5c0.1,1.3,0.7,2,1.9,2c1,0,1.5-0.4,1.6-1h1.5
			c-0.2,1.4-1.4,2.2-3.1,2.2C138.2,19.5,136.7,18.1,136.7,16z M141.8,15.2c-0.1-1.2-0.7-1.7-1.7-1.7c-1,0-1.6,0.6-1.8,1.7H141.8z"/>
		<path d="M145,15h3.1v1.3H145V15z"/>
		<path d="M150,9.3h1.6v4.3c0.3-0.7,1.1-1.2,2.2-1.2c1.4,0,2.3,0.8,2.3,2.7v4.3h-1.6v-4.2c0-1-0.4-1.5-1.4-1.5
			c-0.9,0-1.6,0.6-1.6,1.6v4H150V9.3z"/>
		<path d="M157.7,16v-0.1c0-2.1,1.5-3.5,3.4-3.5c1.7,0,3.2,1,3.2,3.5v0.5h-5c0.1,1.3,0.7,2,1.9,2c1,0,1.5-0.4,1.6-1h1.5
			c-0.2,1.4-1.4,2.2-3.1,2.2C159.2,19.5,157.7,18.1,157.7,16z M162.8,15.2c-0.1-1.2-0.7-1.7-1.7-1.7c-1,0-1.6,0.6-1.8,1.7H162.8z"/>
		<path d="M166.1,9.3h1.6v10h-1.6V9.3z"/>
		<path d="M169.3,17.2h1.5c0.1,0.7,0.4,1.1,1.4,1.1c0.9,0,1.2-0.3,1.2-0.9c0-0.6-0.5-0.8-1.5-0.9c-1.8-0.3-2.5-0.8-2.5-2.1
			c0-1.4,1.3-2.1,2.6-2.1c1.4,0,2.5,0.5,2.7,2.1h-1.5c-0.1-0.6-0.5-0.9-1.2-0.9c-0.7,0-1.1,0.3-1.1,0.8c0,0.5,0.3,0.7,1.4,0.9
			c1.6,0.2,2.6,0.6,2.6,2.1c0,1.4-1,2.2-2.7,2.2C170.4,19.5,169.3,18.6,169.3,17.2z"/>
		<path d="M176.1,16v-0.1c0-2.1,1.5-3.5,3.4-3.5c1.7,0,3.2,1,3.2,3.5v0.5h-5c0.1,1.3,0.7,2,1.9,2c1,0,1.5-0.4,1.6-1h1.5
			c-0.2,1.4-1.4,2.2-3.1,2.2C177.5,19.5,176.1,18.1,176.1,16z M181.1,15.2c-0.1-1.2-0.7-1.7-1.7-1.7c-1,0-1.6,0.6-1.8,1.7H181.1z"/>
	</g>
	<g>
		<rect x="21" y="17.6" width="3.1" height="3.1"/>
		<rect x="21" y="12.8" width="3.1" height="3.1"/>
		<rect x="15.5" y="12.8" width="3.1" height="3.1"/>
		<rect x="25.8" y="12.8" width="3.1" height="3.1"/>
		<rect x="21" y="8" width="3.1" height="3.1"/>
		<ellipse cx="27.3" cy="19.1" rx="1.6" ry="1.6"/>
		<ellipse cx="13.6" cy="19.1" rx="1.6" ry="1.6"/>
		<ellipse cx="27.3" cy="9.6" rx="1.6" ry="1.6"/>
		<ellipse cx="9.4" cy="9.6" rx="1.6" ry="1.6"/>
	</g>
</g>
</svg>
