<?xml version="1.0" encoding="utf-8"?>
<!-- Generator: Adobe Illustrator 18.1.0, SVG Export Plug-In . SVG Version: 6.00 Build 0)  -->
<svg version="1.1" id="Layer_1" xmlns="http://www.w3.org/2000/svg" xmlns:xlink="http://www.w3.org/1999/xlink" x="0px" y="0px"
	 width="46px" height="46px" viewBox="-51 53 46 46" enable-background="new -51 53 46 46" xml:space="preserve">
<g id="Print" display="none">
	
		<line display="inline" fill="none" stroke="#D1CFCF" stroke-width="1.5" stroke-miterlimit="10" x1="-23.489" y1="17.052" x2="-31.426" y2="17.052"/>
	
		<rect x="-34.958" y="-6.81" display="inline" fill="none" stroke="#D1CFCF" stroke-width="1.5" stroke-miterlimit="10" width="15" height="6.81"/>
	
		<rect x="-34.958" y="12.208" display="inline" fill="none" stroke="#D1CFCF" stroke-width="1.5" stroke-miterlimit="10" width="15" height="9.277"/>
	
		<line display="inline" fill="none" stroke="#D1CFCF" stroke-width="1.5" stroke-miterlimit="10" x1="-37.692" y1="12.208" x2="-17.223" y2="12.208"/>
	<g display="inline">
		<polyline fill="none" stroke="#D1CFCF" stroke-width="1.5" stroke-miterlimit="10" points="-35.208,17.052 -43.458,17.052 
			-43.458,0 -11.458,0 -11.458,17.052 -19.708,17.052 		"/>
		<circle fill="none" stroke="#D1CFCF" stroke-width="1.5" stroke-miterlimit="10" cx="-18.819" cy="4.959" r="1.691"/>
	</g>
	<path display="inline" fill="#5E5F5F" d="M-19.208,68.416v-6.81h-16.5v6.811h-8.5V86.97h8.5v4.434h16.5V86.97h8.5V68.416H-19.208z
		 M-34.208,63.106h13.5v5.311h-13.5V63.106z M-20.708,89.903h-13.5v-7.777h13.5V89.903z M-12.208,85.469h-7v-3.344h1.984v-1.5
		h-20.468v1.5h1.984v3.344h-7V69.916h30.5V85.469z M-18.819,76.568c1.347,0,2.441-1.095,2.441-2.441s-1.095-2.441-2.441-2.441
		s-2.441,1.095-2.441,2.441S-20.166,76.568-18.819,76.568z M-18.819,73.185c0.52,0,0.941,0.422,0.941,0.941
		s-0.422,0.941-0.941,0.941s-0.941-0.422-0.941-0.941S-19.339,73.185-18.819,73.185z M-23.489,85.469h-7.937v1.5h7.937V85.469z"/>
	
		<text transform="matrix(1 0 0 1 -98.5397 28.3332)" display="inline" fill="#D6CECE" font-family="'MyriadPro-Regular'" font-size="12">Stroke</text>
	
		<text transform="matrix(1 0 0 1 -143.8508 97.1665)" display="inline" fill="#D6CECE" font-family="'MyriadPro-Regular'" font-size="12">Outlined stroke</text>
</g>
<path fill="#5E5E5E" d="M-22.745,89.398h-17.018v-23.89h15.74l1.664-1.5h-18.904v26.89h20.018V71.374l-1.5,1.351V89.398z
	 M-33.217,77.854c-0.025,0.059,0.091,0.1,0.091,0.1l3.863-0.937l-2.581-2.839L-33.217,77.854z M-28.409,76.385l13.673-12.311
	l-2.677-2.973l-13.673,12.311L-28.409,76.385z M-16.855,63.963l-11.443,10.303l-0.669-0.743l11.443-10.303L-16.855,63.963z"/>
</svg>
