<?xml version="1.0" encoding="UTF-8" standalone="no"?>
<svg width="27px" height="27px" viewBox="0 0 27 27" version="1.1" xmlns="http://www.w3.org/2000/svg" xmlns:xlink="http://www.w3.org/1999/xlink">
    <!-- Generator: Sketch 40.1 (33804) - http://www.bohemiancoding.com/sketch -->
    <title>Combined Shape</title>
    <desc>Created with Sketch.</desc>
    <defs></defs>
    <g id="Symbols" stroke="none" stroke-width="1" fill="none" fill-rule="evenodd">
        <g id="selvvurdering---bra" fill="#11A862">
            <path d="M13.5,27 C20.9558441,27 27,20.9558441 27,13.5 C27,6.04415588 20.9558441,0 13.5,0 C6.04415588,0 0,6.04415588 0,13.5 C0,20.9558441 6.04415588,27 13.5,27 Z M13.5090114,22.3255117 C16.8684664,22.3255117 19.8912573,20.4349377 21.3903633,17.4955965 L20.3213669,16.9503931 C19.0252683,19.4916918 16.4129951,21.1255117 13.5090114,21.1255117 C10.6436497,21.1255117 8.06053306,19.5350937 6.74638866,17.0462213 L5.68522779,17.6065226 C7.20514283,20.4851063 10.1942827,22.3255117 13.5090114,22.3255117 Z M8.89253303,11.1752194 C9.6574162,11.1752194 10.2774765,10.5551591 10.2774765,9.79027591 C10.2774765,9.02539274 9.6574162,8.40533241 8.89253303,8.40533241 C8.12764986,8.40533241 7.50758953,9.02539274 7.50758953,9.79027591 C7.50758953,10.5551591 8.12764986,11.1752194 8.89253303,11.1752194 Z M18.1254897,11.1752194 C18.8903729,11.1752194 19.5104332,10.5551591 19.5104332,9.79027591 C19.5104332,9.02539274 18.8903729,8.40533241 18.1254897,8.40533241 C17.3606065,8.40533241 16.7405462,9.02539274 16.7405462,9.79027591 C16.7405462,10.5551591 17.3606065,11.1752194 18.1254897,11.1752194 Z" id="Combined-Shape"></path>
        </g>
    </g>
</svg>