<svg width="27" height="27" viewBox="0 0 27 27" xmlns="http://www.w3.org/2000/svg"><title>selvvurdering - dårlig</title><path d="M13.5 27C20.956 27 27 20.956 27 13.5S20.956 0 13.5 0 0 6.044 0 13.5 6.044 27 13.5 27zm.01-9.177c2.903 0 5.515 1.634 6.81 4.175l1.07-.545c-1.5-2.94-4.522-4.83-7.88-4.83-3.316 0-6.305 1.84-7.825 4.72l1.06.56c1.316-2.49 3.9-4.08 6.764-4.08zm-4.617-6.648c.764 0 1.384-.62 1.384-1.385s-.62-1.385-1.384-1.385c-.765 0-1.385.62-1.385 1.385s.62 1.385 1.385 1.385zm9.232 0c.765 0 1.385-.62 1.385-1.385s-.62-1.385-1.385-1.385c-.764 0-1.384.62-1.384 1.385s.62 1.385 1.385 1.385z" fill="#DF575F" fill-rule="evenodd"/></svg>