<svg width="27" height="27" viewBox="0 0 27 27" xmlns="http://www.w3.org/2000/svg"><title>Combined Shape</title><path d="M13.5 27C20.956 27 27 20.956 27 13.5S20.956 0 13.5 0 0 6.044 0 13.5 6.044 27 13.5 27zm.01-4.674c3.358 0 6.38-1.89 7.88-4.83l-1.07-.546c-1.295 2.542-3.907 4.176-6.81 4.176-2.866 0-5.45-1.59-6.764-4.08l-1.06.56c1.52 2.88 4.508 4.72 7.823 4.72zm-4.617-11.15c.764 0 1.384-.62 1.384-1.386 0-.765-.62-1.385-1.384-1.385-.765 0-1.385.62-1.385 1.385s.62 1.385 1.385 1.385zm9.232 0c.765 0 1.385-.62 1.385-1.386 0-.765-.62-1.385-1.385-1.385-.764 0-1.384.62-1.384 1.385s.62 1.385 1.385 1.385z" fill="#11A862" fill-rule="evenodd"/></svg>