<svg width="27" height="27" viewBox="0 0 27 27" xmlns="http://www.w3.org/2000/svg"><title>Selvvurdering - litt dårlig</title><path d="M13.5 27C20.956 27 27 20.956 27 13.5S20.956 0 13.5 0 0 6.044 0 13.5 6.044 27 13.5 27zm7-8h.5v-1H6v1h14.5zM8.893 11.175c.764 0 1.384-.62 1.384-1.385s-.62-1.385-1.384-1.385c-.765 0-1.385.62-1.385 1.385s.62 1.385 1.385 1.385zm9.232 0c.765 0 1.385-.62 1.385-1.385s-.62-1.385-1.385-1.385c-.764 0-1.384.62-1.384 1.385s.62 1.385 1.385 1.385z" fill="#EDC353" fill-rule="evenodd"/></svg>