<?xml version="1.0" encoding="UTF-8" standalone="no"?>
<svg width="27px" height="27px" viewBox="0 0 27 27" version="1.1" xmlns="http://www.w3.org/2000/svg" xmlns:xlink="http://www.w3.org/1999/xlink">
    <!-- Generator: Sketch 40.1 (33804) - http://www.bohemiancoding.com/sketch -->
    <title>selvvurdering - dårlig</title>
    <desc>Created with Sketch.</desc>
    <defs></defs>
    <g id="Symbols" stroke="none" stroke-width="1" fill="none" fill-rule="evenodd">
        <g id="selvvurdering---dårlig" fill="#DF575F">
            <path d="M13.5,27 C20.9558441,27 27,20.9558441 27,13.5 C27,6.04415588 20.9558441,0 13.5,0 C6.04415588,0 0,6.04415588 0,13.5 C0,20.9558441 6.04415588,27 13.5,27 Z M13.5090114,17.8229948 C16.4129951,17.8229948 19.0252683,19.4568147 20.3213669,21.9981134 L21.3903633,21.45291 C19.8912573,18.5135688 16.8684664,16.6229948 13.5090114,16.6229948 C10.1942827,16.6229948 7.20514283,18.4634001 5.68522779,21.3419839 L6.74638866,21.9022852 C8.06053306,19.4134127 10.6436497,17.8229948 13.5090114,17.8229948 Z M8.89253303,11.1752194 C9.6574162,11.1752194 10.2774765,10.5551591 10.2774765,9.79027591 C10.2774765,9.02539274 9.6574162,8.40533241 8.89253303,8.40533241 C8.12764986,8.40533241 7.50758953,9.02539274 7.50758953,9.79027591 C7.50758953,10.5551591 8.12764986,11.1752194 8.89253303,11.1752194 Z M18.1254897,11.1752194 C18.8903729,11.1752194 19.5104332,10.5551591 19.5104332,9.79027591 C19.5104332,9.02539274 18.8903729,8.40533241 18.1254897,8.40533241 C17.3606065,8.40533241 16.7405462,9.02539274 16.7405462,9.79027591 C16.7405462,10.5551591 17.3606065,11.1752194 18.1254897,11.1752194 Z" id="Combined-Shape"></path>
        </g>
    </g>
</svg>