<?xml version="1.0" encoding="UTF-8" standalone="no"?>
<svg width="40px" height="40px" viewBox="0 0 40 40" version="1.1" xmlns="http://www.w3.org/2000/svg" xmlns:xlink="http://www.w3.org/1999/xlink">
    <!-- Generator: Sketch 41 (35326) - http://www.bohemiancoding.com/sketch -->
    <title>Slice 1</title>
    <desc>Created with Sketch.</desc>
    <defs></defs>
    <g id="Page-1" stroke="none" stroke-width="1" fill="none" fill-rule="evenodd">
        <path d="M38.1428571,19.8214286 C38.1428571,9.70278298 29.9400742,1.5 19.8214286,1.5 C9.70278298,1.5 1.5,9.70278298 1.5,19.8214286 C1.5,29.9400742 9.70278298,38.1428571 19.8214286,38.1428571 C29.9400742,38.1428571 38.1428571,29.9400742 38.1428571,19.8214286 Z M0,19.8214286 C0,8.87435585 8.87435585,0 19.8214286,0 C30.7685013,0 39.6428571,8.87435585 39.6428571,19.8214286 C39.6428571,30.7685013 30.7685013,39.6428571 19.8214286,39.6428571 C8.87435585,39.6428571 0,30.7685013 0,19.8214286 Z" id="Oval-36-Copy-2" fill="#343434"></path>
        <ellipse id="Oval-36-Copy-2" fill="#343434" cx="13.5684377" cy="14.786803" rx="1.87956618" ry="1.87956618"></ellipse>
        <ellipse id="Oval-36-Copy-2" fill="#343434" cx="26.0988789" cy="14.786803" rx="1.87956618" ry="1.87956618"></ellipse>
        <path d="M19.8336583,25.6240643 C23.7991793,25.6240643 27.3663992,27.855146 29.1362656,31.3253752 L30.4725111,30.6438709 C28.4488855,26.6760887 24.3685185,24.1240643 19.8336583,24.1240643 C15.3591712,24.1240643 11.3242326,26.6083651 9.27251419,30.4941371 L10.5989653,31.1945138 C12.3934704,27.7958809 15.92088,25.6240643 19.8336583,25.6240643 Z" id="Oval-36-Copy-2" fill="#343434"></path>
    </g>
</svg>