<svg width="40" height="40" viewBox="0 0 40 40" xmlns="http://www.w3.org/2000/svg"><title>Artboard</title><g fill="#343434" fill-rule="evenodd"><path d="M38.143 19.82C38.143 9.704 29.94 1.5 19.82 1.5 9.704 1.5 1.5 9.703 1.5 19.82c0 10.12 8.203 18.323 18.32 18.323 10.12 0 18.323-8.203 18.323-18.322zM0 19.82C0 8.875 8.874 0 19.82 0c10.95 0 19.823 8.874 19.823 19.82 0 10.95-8.874 19.823-19.822 19.823C8.875 39.643 0 30.77 0 19.82z"/><ellipse cx="13.88" cy="14.88" rx="1.88" ry="1.88"/><ellipse cx="25.88" cy="14.88" rx="1.88" ry="1.88"/><path d="M29.75 27.5h.75V26H9v1.5h.75"/></g></svg>