<?xml version="1.0" encoding="UTF-8" standalone="no"?>
<svg width="40px" height="40px" viewBox="0 0 40 40" version="1.1" xmlns="http://www.w3.org/2000/svg" xmlns:xlink="http://www.w3.org/1999/xlink">
    <!-- Generator: Sketch 41 (35326) - http://www.bohemiancoding.com/sketch -->
    <title>Artboard</title>
    <desc>Created with Sketch.</desc>
    <defs></defs>
    <g id="Page-1" stroke="none" stroke-width="1" fill="none" fill-rule="evenodd">
        <g id="Artboard" fill="#343434">
            <path d="M38.1428571,19.8214286 C38.1428571,9.70278298 29.9400742,1.5 19.8214286,1.5 C9.70278298,1.5 1.5,9.70278298 1.5,19.8214286 C1.5,29.9400742 9.70278298,38.1428571 19.8214286,38.1428571 C29.9400742,38.1428571 38.1428571,29.9400742 38.1428571,19.8214286 Z M0,19.8214286 C0,8.87435585 8.87435585,0 19.8214286,0 C30.7685013,0 39.6428571,8.87435585 39.6428571,19.8214286 C39.6428571,30.7685013 30.7685013,39.6428571 19.8214286,39.6428571 C8.87435585,39.6428571 0,30.7685013 0,19.8214286 Z" id="Oval-36-Copy-2"></path>
            <ellipse id="Oval-36-Copy-2" cx="13.5684377" cy="14.786803" rx="1.87956618" ry="1.87956618"></ellipse>
            <ellipse id="Oval-36-Copy-2" cx="26.0988789" cy="14.786803" rx="1.87956618" ry="1.87956618"></ellipse>
            <path d="M19.8336583,31.734623 C24.3685185,31.734623 28.4488855,29.1825987 30.4725111,25.2148164 L29.1362656,24.5333122 C27.3663992,28.0035414 23.7991793,30.234623 19.8336583,30.234623 C15.92088,30.234623 12.3934704,28.0628065 10.5989653,24.6641736 L9.27251419,25.3645503 C11.3242326,29.2503222 15.3591712,31.734623 19.8336583,31.734623 Z" id="Oval-36-Copy-2"></path>
        </g>
    </g>
</svg>