<?xml version="1.0" encoding="UTF-8" standalone="no"?>
<svg width="98px" height="87px" viewBox="0 0 98 87" version="1.1" xmlns="http://www.w3.org/2000/svg" xmlns:xlink="http://www.w3.org/1999/xlink">
    <!-- Generator: Sketch 39.1 (31720) - http://www.bohemiancoding.com/sketch -->
    <title>ikon - puls</title>
    <desc>Created with Sketch.</desc>
    <defs></defs>
    <g id="Page-1" stroke="none" stroke-width="1" fill="none" fill-rule="evenodd">
        <path d="M69.3304359,0 C58.3132005,0 51.4874836,6.89274593 48.6786886,10.4830104 C45.8698936,6.89274593 39.0441767,0 28.0273427,0 C12.3108544,0 2.84217094e-14,12.9337824 2.84217094e-14,29.444584 C2.84217094e-14,30.3874048 0.763809207,31.151214 1.70662993,31.151214 C2.64904927,31.151214 3.41325985,30.3874048 3.41325985,29.444584 C3.41325985,16.6484719 12.6199102,3.41325985 28.0273427,3.41325985 C40.6115308,3.41325985 47.1438455,14.2069315 47.2080649,14.3157031 C47.2229156,14.3405881 47.2425828,14.3606567 47.2586377,14.3847389 C47.2923528,14.4357131 47.3276735,14.4850817 47.3674092,14.5328449 C47.4019271,14.5749888 47.4384519,14.6143232 47.4765822,14.6528548 C47.5155152,14.6913864 47.5556523,14.7283126 47.598599,14.7636332 C47.6463621,14.8029676 47.6953294,14.8382883 47.7467049,14.8716021 C47.7707872,14.8876569 47.7904544,14.9073241 47.8153394,14.9221748 C47.8354079,14.9338146 47.8566806,14.9394338 47.8767492,14.9502708 C47.9309343,14.9791695 47.9863235,15.0036532 48.0433182,15.0265313 C48.0926868,15.0465999 48.1416541,15.0658657 48.1918255,15.0807164 C48.2452078,15.0967713 48.2989916,15.1080096 48.3539794,15.1184453 C48.4077631,15.1292823 48.4615469,15.1393166 48.5157319,15.1445344 C48.5707198,15.1497522 48.6257076,15.1501536 48.6810968,15.1501536 C48.7348806,15.1497522 48.7882629,15.1497522 48.8416453,15.1445344 C48.8970345,15.1393166 48.951621,15.1288809 49.0070102,15.1180439 C49.0607939,15.1072069 49.1137749,15.0963699 49.1663545,15.0807164 C49.2169273,15.0654643 49.2654932,15.0461985 49.3148618,15.0261299 C49.3722579,15.0032518 49.4280485,14.9783668 49.4830363,14.9490667 C49.5023021,14.938631 49.522772,14.9334132 49.5416365,14.9221748 C49.5665215,14.9077255 49.5857873,14.8880583 49.6094682,14.8728062 C49.6620478,14.8382883 49.7126206,14.8017635 49.7615879,14.7616264 C49.8033304,14.7271085 49.8422634,14.6909851 49.8799923,14.6532562 C49.9193267,14.6143232 49.9562528,14.5741861 49.9919749,14.530838 C50.0309079,14.4830748 50.0662285,14.4341076 50.0995423,14.3831334 C50.1155972,14.3586498 50.1360671,14.3385812 50.1509178,14.3128935 C50.2147358,14.2041219 56.6868448,3.41325985 69.3304359,3.41325985 C84.7378684,3.41325985 93.9445188,16.6484719 93.9445188,29.444584 C93.9445188,51.9928098 55.1391579,78.2693717 48.6778859,82.4861765 C44.7175572,79.9053603 28.6021061,69.0474693 16.7568421,55.8415573 C16.1266895,55.1391579 15.047804,55.0813604 14.34701,55.7107103 C13.6454134,56.3396588 13.5864118,57.4189457 14.2161631,58.1205424 C28.0767113,73.5737312 47.5789318,85.8408362 47.7739982,85.962853 C47.7860393,85.9704791 47.7988832,85.9752955 47.8109243,85.9825202 C47.8530683,86.0074052 47.8964163,86.029882 47.9405672,86.0511547 C47.9678604,86.0643999 47.9947523,86.0776452 48.0228482,86.0892849 C48.0629853,86.1061425 48.1047279,86.1201905 48.1460692,86.1338371 C48.1773761,86.1442728 48.2086831,86.1555111 48.23999,86.1639399 C48.2809299,86.174777 48.3226724,86.1820016 48.364415,86.1900291 C48.3961234,86.1956483 48.4274303,86.2036757 48.4591386,86.2076894 C48.5205484,86.2157168 48.5823596,86.2193292 48.6445721,86.2205333 C48.6554091,86.2205333 48.6662461,86.2225401 48.6770831,86.2225401 L48.6786886,86.2225401 L48.6802941,86.2225401 C48.689927,86.2225401 48.6995599,86.2209346 48.7091928,86.2205333 C48.7730108,86.2193292 48.8364275,86.2157168 48.8994427,86.2076894 C48.9283414,86.2036757 48.9564374,86.196451 48.9853361,86.1912332 C49.0298883,86.1832058 49.0744405,86.1751783 49.1185913,86.1635386 C49.1486942,86.1555111 49.1783956,86.1446741 49.2080971,86.1346399 C49.2510438,86.1205919 49.2935891,86.1065439 49.3349304,86.0888835 C49.362625,86.0776452 49.3895168,86.0643999 49.4164087,86.0511547 C49.4605595,86.0302834 49.5039076,86.0074052 49.5464529,85.9821188 C49.5584941,85.9752955 49.5713379,85.9704791 49.5833791,85.962853 C49.7017836,85.8885994 61.587586,78.4230969 73.3056153,67.8919219 C89.2653344,53.5489256 97.3577786,40.6135377 97.3577786,29.444584 C97.3577786,12.9337824 85.0465228,0 69.3304359,0 L69.3304359,0 Z M46.0798107,64.6954024 C46.3382937,65.3472291 46.968045,65.7730838 47.6660293,65.7730838 C47.6828869,65.7730838 47.6997445,65.7726825 47.7162007,65.7722811 C48.4342536,65.7514098 49.0623994,65.2830097 49.2871672,64.6010802 C53.0656748,53.1483572 58.8723105,35.8267859 61.4314526,28.7851313 C63.0337261,32.2437461 65.6265834,38.2161481 67.9597536,43.7723283 C68.2254613,44.4056919 68.845981,44.8179 69.5331283,44.8179 L74.9994014,44.8179 C75.9422221,44.8179 76.7060313,44.0540908 76.7060313,43.1112701 C76.7060313,42.1688507 75.9422221,41.4046401 74.9994014,41.4046401 L70.6653962,41.4046401 C69.9798544,39.7826995 68.5895049,36.5099195 67.1742704,33.266841 C66.0074846,30.5929068 65.0502145,28.459218 64.3297534,26.925579 C62.979541,24.0497551 62.5243862,23.0812466 61.2315698,23.0812466 C59.9499919,23.0812466 59.5702948,24.0698236 58.881542,25.8635511 C58.4849874,26.8962789 57.9347076,28.4078425 57.2467575,30.3569006 C56.0936184,33.6224558 54.5318834,38.1723987 52.6044994,43.8810998 C50.6879524,49.5584941 48.7826437,55.2780323 47.5231412,59.0709892 L40.9518935,42.4827229 C40.6938119,41.8321004 40.0652648,41.4046401 39.3652736,41.4046401 L7.17330433,41.4046401 C6.23048362,41.4046401 5.46667441,42.1688507 5.46667441,43.1112701 C5.46667441,44.0540908 6.23048362,44.8179 7.17330433,44.8179 L38.2057125,44.8179 L46.0798107,64.6954024 Z" id="ikon---puls" fill="#4A4A4A"></path>
    </g>
</svg>