<?xml version="1.0" encoding="UTF-8" standalone="no"?>
<svg width="109px" height="109px" viewBox="0 0 109 109" version="1.1" xmlns="http://www.w3.org/2000/svg" xmlns:xlink="http://www.w3.org/1999/xlink">
    <!-- Generator: Sketch 39.1 (31720) - http://www.bohemiancoding.com/sketch -->
    <title>ikon - blodtrykk</title>
    <desc>Created with Sketch.</desc>
    <defs></defs>
    <g id="Page-1" stroke="none" stroke-width="1" fill="none" fill-rule="evenodd">
        <path d="M92.9027715,40.8881206 C89.3840743,40.8881206 86.5220177,37.9907585 86.5220177,34.4294106 C86.5220177,31.3637665 88.6451446,28.7951808 91.4804404,28.1383054 L91.4804404,34.4294106 C91.4804404,35.2244329 92.1170105,35.8691188 92.9027715,35.8691188 C93.6885325,35.8691188 94.3251026,35.2244329 94.3251026,34.4294106 L94.3251026,28.1383054 C97.160064,28.7951808 99.2831908,31.3637665 99.2831908,34.4294106 C99.2831908,37.9907585 96.4211342,40.8881206 92.9027715,40.8881206 L92.9027715,40.8881206 Z M92.9027715,25.0916227 C87.8158975,25.0916227 83.6773556,29.2803882 83.6773556,34.4294106 C83.6773556,39.578433 87.8158975,43.7675371 92.9027715,43.7675371 C97.9896456,43.7675371 102.127853,39.578433 102.127853,34.4294106 C102.127853,29.2803882 97.9896456,25.0916227 92.9027715,25.0916227 L92.9027715,25.0916227 Z M92.9027715,47.8442274 C85.5950941,47.8442274 79.6498706,41.8263688 79.6498706,34.4294106 C79.6498706,27.0324524 85.5950941,21.0145938 92.9027715,21.0145938 C100.210449,21.0145938 106.155338,27.0324524 106.155338,34.4294106 C106.155338,41.8263688 100.210449,47.8442274 92.9027715,47.8442274 L92.9027715,47.8442274 Z M97.7872678,55.1081176 L88.0179407,55.1081176 L88.0179407,49.9546934 C89.5596914,50.4527675 91.2001221,50.7236439 92.9027715,50.7236439 C94.6050864,50.7236439 96.2458516,50.4527675 97.7872678,49.9546934 L97.7872678,55.1081176 Z M13.0414914,79.3546058 L3.51066899,78.2402879 C3.13100159,78.1962705 2.84466213,77.8712188 2.84466213,77.4845426 L2.84466213,27.4401214 L12.7146763,28.594055 C16.3628284,29.0203468 20.0738681,29.2363708 23.7461048,29.2363708 C26.8804515,29.2363708 30.0435659,29.0775694 33.1715569,28.7664001 L33.1715569,79.4947844 C30.0452385,79.8154344 26.8804515,79.9782988 23.7454358,79.9782988 C20.1819144,79.9782988 16.5809281,79.7683696 13.0414914,79.3546058 L13.0414914,79.3546058 Z M23.7574781,24.220755 C29.9348506,24.220755 34.9033086,24.7086712 38.5367423,25.2568573 L34.4306478,25.73597 C30.8975667,26.1480408 27.302936,26.3569543 23.7461048,26.3569543 C20.1825835,26.3569543 16.5812626,26.1473636 13.0414914,25.7335999 L8.9718583,25.2578731 C12.605961,24.7093483 17.576426,24.220755 23.7574781,24.220755 L23.7574781,24.220755 Z M44.6702941,77.4838655 C44.6702941,77.8708802 44.3839546,78.1959319 44.0042872,78.2399493 L36.0158846,79.1721028 L36.0158846,28.4494747 L44.6702941,27.4394442 L44.6702941,77.4838655 Z M60.9729109,43.9612137 L67.5777856,43.9612137 L67.5777856,38.2653595 L60.9729109,38.2653595 L60.9729109,43.9612137 Z M59.5181325,7.89570947 L63.3485918,3.28302238 C63.5616739,3.02670556 63.8995277,2.8794165 64.2755155,2.8794165 C64.6511688,2.8794165 64.9893571,3.02670556 65.2021046,3.28302238 L69.0328985,7.89570947 C75.2293379,15.357678 74.367309,25.9161029 67.0271842,32.4557372 L64.2755155,34.9075075 L61.5235123,32.4557372 C54.1833875,25.9161029 53.3213585,15.357678 59.5181325,7.89570947 L59.5181325,7.89570947 Z M92.9027715,18.1351773 C84.0265827,18.1351773 76.8052085,25.4447779 76.8052085,34.4294106 C76.8052085,40.5803372 80.1904367,45.945045 85.1736131,48.7178039 L85.1736131,56.5478258 C85.1736131,57.3431868 85.8101832,57.9875341 86.5959442,57.9875341 L91.9096151,57.9875341 C91.5868142,90.3711504 80.2907893,106.120584 57.4030339,106.120584 C48.4127776,106.120584 41.097072,103.612945 35.6596328,98.6667412 C31.4923232,94.8758255 28.3151594,89.5500562 26.1943741,82.8241944 C27.3246791,82.7947365 28.4563221,82.7453016 29.586627,82.6755509 C32.9952708,89.8544536 38.3661428,93.4933399 45.5617598,93.4933399 C54.7279677,93.4933399 60.9019951,87.591281 63.9125735,75.9507048 C66.2588177,66.8776987 66.3772338,55.929889 66.3832549,46.8406302 L69.0001166,46.8406302 C69.7858776,46.8406302 70.4224477,46.1959443 70.4224477,45.400922 L70.4224477,36.8256513 C70.4224477,36.0306289 69.7858776,35.385943 69.0001166,35.385943 L68.0440907,35.385943 L68.9071232,34.6169925 C77.436761,27.0172156 78.4269068,14.7329693 71.2102157,6.04291466 L67.3797564,1.43022757 C66.6247702,0.521437136 65.4934617,0 64.2755155,0 C63.0572347,0 61.9259263,0.521437136 61.1712746,1.43056617 L57.3404808,6.04291466 C50.1237897,14.7329693 51.1139355,27.0172156 59.6439078,34.6169925 L60.5069403,35.385943 L59.5505799,35.385943 C58.7648189,35.385943 58.1282488,36.0306289 58.1282488,36.8256513 L58.1282488,45.400922 C58.1282488,46.1959443 58.7648189,46.8406302 59.5505799,46.8406302 L63.5389273,46.8406302 C63.5265505,64.8183606 63.066601,90.6139234 45.5617598,90.6139234 C39.8152346,90.6139234 35.5796852,87.9332625 32.657417,82.4358253 C33.3588818,82.3697991 34.0593431,82.2986941 34.7567937,82.2174311 L44.3304332,81.1004045 C46.145812,80.8887822 47.5146217,79.3339515 47.5146217,77.4838655 L47.5146217,25.8243435 C47.5146217,25.7528998 47.5029139,25.6834877 47.4925441,25.613737 C47.6002559,24.9274039 47.2082117,24.2444567 46.5348457,24.0213222 C46.2043511,23.9119558 38.2778325,21.3413385 23.7574781,21.3413385 C9.23745822,21.3413385 1.31027065,23.9119558 0.980110541,24.0213222 C0.30774802,24.2441181 -0.083961688,24.9253723 0.0227465928,25.6110283 C0.0120423138,25.6814561 0,25.751884 0,25.8243435 L0,77.4845426 C0,79.3339515 1.36880967,80.8884436 3.18385397,81.100743 L12.7146763,82.215061 C16.1908909,82.6213756 19.7243065,82.8346908 23.2266128,82.8539908 C28.3900893,100.200579 39.8801293,109 57.4030339,109 C72.2114003,109 82.7691644,102.669618 88.7839657,90.1849229 C92.670288,82.1175455 94.6264949,71.5736803 94.7546118,57.9875341 L99.2095989,57.9875341 C99.9950253,57.9875341 100.631595,57.3431868 100.631595,56.5478258 L100.631595,48.7178039 C105.614772,45.945045 109,40.5803372 109,34.4294106 C109,25.4447779 101.778626,18.1351773 92.9027715,18.1351773 L92.9027715,18.1351773 Z" id="ikon---blodtrykk" fill="#4A4A4A"></path>
    </g>
</svg>