<?xml version="1.0" encoding="UTF-8" standalone="no"?>
<svg width="79px" height="90px" viewBox="0 0 79 90" version="1.1" xmlns="http://www.w3.org/2000/svg" xmlns:xlink="http://www.w3.org/1999/xlink">
    <!-- Generator: Sketch 39.1 (31720) - http://www.bohemiancoding.com/sketch -->
    <title>ikon - vekt</title>
    <desc>Created with Sketch.</desc>
    <defs></defs>
    <g id="Page-1" stroke="none" stroke-width="1" fill="none" fill-rule="evenodd">
        <path d="M76.2489558,76.9761838 C76.2489558,82.3491958 71.8775,86.7206516 66.5048116,86.7206516 L40.8755221,86.7206516 L40.8755221,46.4235475 L61.3258997,46.4235475 C64.6039254,46.4235475 67.2705361,43.7566133 67.2705361,40.4789111 L67.2705361,18.6924784 C72.286404,19.0848839 76.2489558,23.2890903 76.2489558,28.4039492 L76.2489558,76.9761838 Z M36.8392123,20.356886 C36.6884613,19.612189 35.9628507,19.132115 35.2178302,19.2818955 C34.4734566,19.4326465 33.9920886,20.1585805 34.1431631,20.9032776 L37.0523988,35.2621497 C35.1240152,36.1795957 33.7876366,38.1396824 33.7876366,40.4174461 C33.7876366,41.6279832 34.1667786,42.7485872 34.8092496,43.6725033 L17.0869478,43.6725033 C15.3258137,43.6725033 13.8930321,42.2397217 13.8930321,40.4789111 L13.8930321,5.94463645 C13.8930321,4.18350232 15.3258137,2.75104421 17.0869478,2.75104421 L61.3258997,2.75104421 C63.0867103,2.75104421 64.5194919,4.18350232 64.5194919,5.94463645 L64.5194919,40.4789111 C64.5194919,42.2397217 63.0867103,43.6725033 61.3258997,43.6725033 L44.1907504,43.6725033 C44.8332214,42.7485872 45.2120399,41.6279832 45.2120399,40.4174461 C45.2120399,37.3464603 42.7870837,34.8490401 39.7487715,34.7176991 L36.8392123,20.356886 Z M38.1244779,86.7206516 L12.4955119,86.7206516 C7.12217654,86.7206516 2.75104421,82.3491958 2.75104421,76.9761838 L2.75104421,28.4039492 C2.75104421,23.4903073 6.40756499,19.416795 11.1419878,18.7555609 L11.1419878,40.4789111 C11.1419878,43.7566133 13.808922,46.4235475 17.0869478,46.4235475 L38.1244779,46.4235475 L38.1244779,86.7206516 Z M67.2705361,15.9343172 L67.2705361,5.94463645 C67.2705361,2.6666107 64.6039254,0 61.3258997,0 L17.0869478,0 C13.808922,0 11.1419878,2.6666107 11.1419878,5.94463645 L11.1419878,15.9831657 C4.88614437,16.6602513 1.42108547e-14,21.9711512 1.42108547e-14,28.4039492 L1.42108547e-14,76.9761838 C1.42108547e-14,83.8664109 5.60528493,89.4716958 12.4955119,89.4716958 L66.5048116,89.4716958 C73.3947151,89.4716958 79,83.8664109 79,76.9761838 L79,28.4039492 C79,21.7712282 73.8049131,16.3315752 67.2705361,15.9343172 L67.2705361,15.9343172 Z M50.4909133,14.3067886 C50.4135968,14.5481196 50.5462318,14.8062726 50.7872394,14.8839126 C50.8338234,14.8984701 50.8810544,14.9059106 50.9276384,14.9059106 C51.1214149,14.9059106 51.3016044,14.7816866 51.3640399,14.5875866 L52.0327145,12.5045699 C54.0934096,13.298439 56.0848758,14.2809086 57.9773509,15.4539197 C58.1921549,15.5868782 58.4752174,15.5212077 58.608823,15.3057567 C58.742105,15.0903056 58.6757875,14.8078901 58.4606599,14.6742846 C52.6861845,11.0950803 46.0282305,9.2029287 39.206262,9.2029287 C39.028337,9.2029287 38.8513825,9.2100457 38.6737809,9.2126337 C38.6579294,9.2110162 38.6427249,9.2081047 38.6265499,9.2081047 C38.6032579,9.2081047 38.5809364,9.2113397 38.5582914,9.2148982 C31.4713764,9.33815171 24.6448789,11.4774574 18.7782059,15.4319217 C18.5679309,15.5732912 18.5126124,15.8582947 18.6543054,16.0682462 C18.7426209,16.1995872 18.8875489,16.2707572 19.0347414,16.2704337 C19.1227335,16.2704337 19.2120195,16.2452007 19.29063,16.1918232 C21.5962146,14.6377291 24.0554618,13.374785 26.620817,12.4075199 L27.3205476,14.5875866 C27.3829831,14.7816866 27.5631726,14.9059106 27.7572726,14.9059106 C27.8035331,14.9059106 27.8507641,14.8984701 27.8973481,14.8839126 C28.1383556,14.8062726 28.2709906,14.5481196 28.1936741,14.3067886 L27.4826211,12.0914604 C30.9000753,10.9029213 34.4961016,10.2439518 38.1681504,10.1388143 L38.1681504,12.2949419 C38.1681504,12.5482425 38.3732494,12.7533415 38.6265499,12.7533415 C38.8798505,12.7533415 39.0849495,12.5482425 39.0849495,12.2949419 L39.0849495,10.1219923 C39.125387,10.1216688 39.1658245,10.1197278 39.206262,10.1197278 C43.3114773,10.1197278 47.3545806,10.8246343 51.1725279,12.1830109 L50.4909133,14.3067886 Z" id="ikon---vekt" fill="#4A4A4A"></path>
    </g>
</svg>