<?xml version="1.0" encoding="UTF-8" standalone="no"?>
<svg width="73px" height="96px" viewBox="0 0 73 96" version="1.1" xmlns="http://www.w3.org/2000/svg" xmlns:xlink="http://www.w3.org/1999/xlink">
    <!-- Generator: Sketch 39.1 (31720) - http://www.bohemiancoding.com/sketch -->
    <title>egenv - ikon</title>
    <desc>Created with Sketch.</desc>
    <defs></defs>
    <g id="Page-1" stroke="none" stroke-width="1" fill="none" fill-rule="evenodd">
        <g id="egenv---ikon" transform="translate(2.000000, 2.000000)" stroke="#4A4A4A" stroke-width="3">
            <path d="M50.5272995,17.1196249 C50.5272995,26.5739377 43.3894056,34.2392498 34.5856045,34.2392498 C25.7818035,34.2392498 18.6439095,26.5739377 18.6439095,17.1196249 C18.6439095,7.66531204 25.7818035,0 34.5856045,0 C43.3894056,0 50.5272995,7.66531204 50.5272995,17.1196249 L50.5272995,17.1196249 Z" id="Stroke-1"></path>
            <path d="M69.2467474,80.2783923 C69.2467474,60.0686751 54.2336561,43.6252754 35.5300625,43.1095467 C19.3651838,42.6622965 4.92200809,54.778711 0.992380278,71.6222819 C0.300909258,74.583977 -0.0019829466,77.4814736 9.76527644e-06,80.2976518 C0.00200247715,82.6901194 1.38295181,84.8172328 3.41153249,85.8037512 C8.42121014,88.2411578 19.1220729,92.3177685 34.6233786,92.3177685 C50.1286697,92.3177685 60.8295324,88.2390178 65.8392101,85.8016112 C67.8618126,84.8193728 69.2447547,82.7008192 69.2467474,80.3169114 L69.2467474,80.2783923 L69.2467474,80.2783923 Z" id="Stroke-3"></path>
        </g>
    </g>
</svg>