<?xml version="1.0" encoding="utf-8"?>
<!-- Generator: Adobe Illustrator 16.0.0, SVG Export Plug-In . SVG Version: 6.00 Build 0)  -->
<!DOCTYPE svg PUBLIC "-//W3C//DTD SVG 1.1//EN" "http://www.w3.org/Graphics/SVG/1.1/DTD/svg11.dtd">
<svg version="1.1" id="Layer_1" xmlns="http://www.w3.org/2000/svg" xmlns:xlink="http://www.w3.org/1999/xlink" x="0px" y="0px"
	 width="53.119px" height="66.424px" viewBox="48.485 43.254 53.119 66.424" enable-background="new 48.485 43.254 53.119 66.424"
	 xml:space="preserve">
<path fill="#343434" d="M98.654,92.966c-1.012-5.733-4.703-10.755-9.877-13.428c-2.652-1.37-5.635-2.095-8.623-2.095H69.933
	c-2.988,0-5.97,0.725-8.622,2.095c-5.175,2.674-8.868,7.692-9.879,13.428l-2.947,16.712l1.969,0.348L53.4,93.314
	c0.904-5.125,4.204-9.609,8.828-11.998c2.37-1.226,5.034-1.873,7.704-1.873h10.222c2.671,0,5.334,0.647,7.705,1.873
	c4.623,2.389,7.922,6.873,8.826,11.998l2.949,16.711l1.969-0.348L98.654,92.966z M76.044,84.779h-2v10.344H63.7v2h10.344v10.346h2
	V97.123h10.345v-2H76.044V84.779z M62.641,62.766l1.065,0.699c0.03,0.1,0.062,0.2,0.089,0.274l0.254,0.736
	c1.318,3.854,3.771,11.028,10.407,11.028h1.249c6.574,0,9.011-7.146,10.318-10.984l0.269-0.777c0.026-0.075,0.06-0.177,0.09-0.277
	l1.065-0.699c0.768-0.504,1.156-1.343,1.156-2.491v-1.751c0-1.482-0.68-2.204-1.25-2.549l-0.486-0.295
	c-0.002-0.112-0.002-0.224-0.002-0.336c0-7.57-4.42-12.09-11.821-12.09c-2.773,0-11.822,0.872-11.822,12.09
	c0,0.112,0,0.224-0.001,0.335l-0.488,0.296c-0.57,0.345-1.249,1.067-1.249,2.549v1.751C61.483,61.423,61.873,62.262,62.641,62.766z
	 M63.483,58.524c0-0.666,0.207-0.791,0.284-0.838l1.435-0.868l0.011-0.551c0.006-0.308,0.009-0.614,0.009-0.923
	c0-9.106,6.869-10.09,9.822-10.09c3.668,0,9.822,1.311,9.822,10.09c0,0.308,0.003,0.613,0.008,0.92l0.009,0.553l1.438,0.869
	c0.078,0.048,0.285,0.173,0.285,0.838v1.751c0,0.652-0.18,0.77-0.256,0.819l-1.681,1.103l-0.103,0.357c0,0-0.098,0.347-0.16,0.521
	l-0.275,0.799c-1.229,3.602-3.283,9.63-8.426,9.63h-1.322c-5.133,0-7.204-6.057-8.441-9.676l-0.261-0.756
	c-0.061-0.171-0.158-0.514-0.16-0.519l-0.102-0.356l-1.681-1.104c-0.076-0.05-0.255-0.167-0.255-0.819V58.524z"/>
</svg>
