<?xml version="1.0" encoding="utf-8"?>
<!-- Generator: Adobe Illustrator 16.0.0, SVG Export Plug-In . SVG Version: 6.00 Build 0)  -->
<!DOCTYPE svg PUBLIC "-//W3C//DTD SVG 1.1//EN" "http://www.w3.org/Graphics/SVG/1.1/DTD/svg11.dtd">
<svg version="1.1" id="Layer_1" xmlns="http://www.w3.org/2000/svg" xmlns:xlink="http://www.w3.org/1999/xlink" x="0px" y="0px"
	 width="53.119px" height="66.424px" viewBox="48.485 43.254 53.119 66.424" enable-background="new 48.485 43.254 53.119 66.424"
	 xml:space="preserve">
<path fill="#343434" d="M62.641,62.766l1.065,0.699c0.03,0.1,0.062,0.2,0.089,0.274l0.254,0.736
	c1.318,3.854,3.771,11.028,10.407,11.028h1.249c6.574,0,9.011-7.146,10.318-10.984l0.269-0.777c0.026-0.075,0.06-0.177,0.09-0.277
	l1.065-0.699c0.768-0.504,1.156-1.343,1.156-2.491v-1.751c0-1.482-0.68-2.204-1.25-2.549l-0.486-0.295
	c-0.002-0.112-0.002-0.224-0.002-0.336c0-7.57-4.42-12.09-11.821-12.09c-2.773,0-11.822,0.872-11.822,12.09
	c0,0.112,0,0.224-0.001,0.335l-0.488,0.296c-0.57,0.345-1.249,1.067-1.249,2.549v1.751C61.483,61.423,61.873,62.262,62.641,62.766z
	 M63.483,58.524c0-0.666,0.207-0.791,0.284-0.838l1.435-0.868l0.011-0.551c0.006-0.308,0.009-0.614,0.009-0.923
	c0-9.106,6.869-10.09,9.822-10.09c3.668,0,9.822,1.311,9.822,10.09c0,0.308,0.003,0.613,0.008,0.92l0.009,0.553l1.438,0.869
	c0.078,0.048,0.285,0.173,0.285,0.838v1.751c0,0.652-0.18,0.77-0.256,0.819l-1.681,1.103l-0.103,0.357c0,0-0.098,0.347-0.16,0.521
	l-0.275,0.799c-1.229,3.602-3.283,9.63-8.426,9.63h-1.322c-5.133,0-7.204-6.057-8.441-9.676l-0.261-0.756
	c-0.061-0.171-0.158-0.514-0.16-0.519l-0.102-0.356l-1.681-1.104c-0.076-0.05-0.255-0.167-0.255-0.819V58.524z M98.654,92.966
	c-1.012-5.733-4.703-10.755-9.877-13.428c-2.652-1.37-5.635-2.095-8.623-2.095H69.933c-2.988,0-5.97,0.725-8.622,2.095
	c-5.175,2.674-8.868,7.692-9.879,13.428l-2.947,16.712l1.969,0.348L53.4,93.314c0.904-5.125,4.204-9.609,8.828-11.998
	c2.37-1.226,5.034-1.873,7.704-1.873h10.222c2.671,0,5.334,0.647,7.705,1.873c4.623,2.389,7.922,6.873,8.826,11.998l2.949,16.711
	l1.969-0.348L98.654,92.966z"/>
<g>
	<g>
		<defs>
			<path id="SVGID_1_" d="M68.257,95.117c0-0.738-0.586-1.325-1.325-1.325c-0.739,0-1.325,0.587-1.325,1.325
				s0.586,1.324,1.325,1.324C67.67,96.441,68.257,95.855,68.257,95.117 M69.147,92.021c0.738,0,1.325-0.586,1.325-1.324
				c0-0.739-0.587-1.325-1.325-1.325c-0.739,0-1.325,0.737-1.325,1.325C67.822,91.436,68.408,92.021,69.147,92.021 M80.486,102.33
				c-0.737,0-1.324,0.587-1.324,1.324c0,0.74,0.587,1.326,1.324,1.326c0.74,0,1.326-0.586,1.326-1.326
				C81.811,102.918,81.225,102.33,80.486,102.33 M82.55,98.062c-0.739,0-1.325,0.586-1.325,1.324c0,0.729,0.586,1.316,1.316,1.325
				h0.009h0.009c0.73-0.009,1.316-0.587,1.316-1.325S83.289,98.062,82.55,98.062 M83.289,93.792c-0.739,0-1.326,0.587-1.326,1.325
				s0.587,1.324,1.326,1.324c0.738,0,1.324-0.586,1.324-1.324C84.613,94.38,84.018,93.792,83.289,93.792 M75.034,64.602
				c0.729,0,1.325,0.597,1.325,1.325c0,0.729-0.586,1.316-1.316,1.325h-0.009h-0.009c-0.728-0.009-1.316-0.595-1.316-1.325
				S74.306,64.602,75.034,64.602 M75.034,68.872c0.729,0,1.325,0.597,1.325,1.325c0,0.73-0.586,1.316-1.316,1.325h-0.009h-0.009
				c-0.728-0.009-1.316-0.595-1.316-1.325C73.709,69.469,74.306,68.872,75.034,68.872 M71.172,106.325
				c-1.77,0.294-3.095,0.88-4.562,1.911c-1.476,1.174-2.357,0.738-2.651-1.032c-0.292-1.911-0.444-5.745-0.444-5.745v-2.803
				c0.292-2.944,0.586-5.887,2.205-8.396c0.587-1.031,1.619-2.064,2.509-2.65c1.031-0.738,1.912-0.444,2.508,0.738
				c0.294,0.739,2.651,10.905,2.651,15.316C73.378,105.445,73.084,106.031,71.172,106.325 M73.264,88.482
				c-0.728,0-1.325-0.598-1.325-1.326s0.597-1.324,1.325-1.324c0.73,0,1.326,0.596,1.326,1.324
				C74.59,87.895,74.003,88.482,73.264,88.482 M73.709,82.887c0-0.738,0.587-1.324,1.325-1.324c0.739,0,1.325,0.586,1.325,1.324
				c0,0.739-0.586,1.325-1.325,1.325C74.296,84.212,73.709,83.626,73.709,82.887 M75.621,87.156c0-0.729,0.598-1.324,1.324-1.324
				c0.73,0,1.326,0.596,1.326,1.324s-0.596,1.326-1.326,1.326C76.219,88.482,75.621,87.895,75.621,87.156 M86.564,101.469
				c0,0-0.151,3.834-0.445,5.746c-0.292,1.77-1.174,2.205-2.65,1.031c-1.476-1.031-2.801-1.619-4.562-1.912
				c-1.912-0.294-2.206-0.88-2.206-2.65c0-4.42,2.357-14.586,2.65-15.315c0.586-1.175,1.478-1.478,2.508-0.739
				c0.882,0.587,1.912,1.619,2.51,2.65c1.619,2.509,1.912,5.453,2.205,8.396C86.564,99.557,86.564,100.588,86.564,101.469
				 M69.733,102.33c-0.738,0-1.325,0.587-1.325,1.324c0,0.74,0.587,1.326,1.325,1.326c0.739,0,1.326-0.586,1.326-1.326
				C71.059,102.918,70.472,102.33,69.733,102.33 M68.844,99.387c0-0.738-0.587-1.324-1.325-1.324c-0.739,0-1.326,0.586-1.326,1.324
				s0.587,1.325,1.326,1.325C68.257,100.712,68.844,100.124,68.844,99.387 M80.932,92.021c0.739,0,1.325-0.586,1.325-1.324
				c0-0.739-0.586-1.325-1.325-1.325c-0.738,0-1.324,0.737-1.324,1.325C79.598,91.436,80.193,92.021,80.932,92.021"/>
		</defs>
		<clipPath id="SVGID_2_">
			<use xlink:href="#SVGID_1_"  overflow="visible"/>
		</clipPath>
		<g clip-path="url(#SVGID_2_)">
			<g>
				<defs>
					<rect id="SVGID_3_" x="-541.541" y="-442.539" width="1440" height="1024"/>
				</defs>
				<clipPath id="SVGID_4_">
					<use xlink:href="#SVGID_3_"  overflow="visible"/>
				</clipPath>
				<rect x="58.515" y="59.602" clip-path="url(#SVGID_4_)" fill="#343434" width="33.057" height="54.3"/>
			</g>
		</g>
	</g>
</g>
</svg>
