<svg xmlns="http://www.w3.org/2000/svg" xmlns:xlink="http://www.w3.org/1999/xlink" width="53.119" height="66.424" viewBox="48.485 43.254 53.119 66.424"><path fill="#343434" d="M62.64 62.766l1.066.7c.03.1.062.2.09.273l.253.735c1.317 3.854 3.77 11.028 10.406 11.028h1.25c6.573 0 9.01-7.146 10.317-10.984l.27-.778c.025-.075.06-.177.09-.277l1.064-.7c.768-.503 1.156-1.342 1.156-2.49v-1.75c0-1.483-.68-2.205-1.25-2.55l-.486-.295c-.002-.112-.002-.224-.002-.336 0-7.57-4.42-12.09-11.82-12.09-2.774 0-11.823.872-11.823 12.09v.335l-.49.295c-.57.345-1.248 1.067-1.248 2.55v1.75c0 1.148.39 1.987 1.157 2.49zm.843-4.242c0-.666.207-.79.284-.838l1.435-.868.01-.55c.007-.31.01-.615.01-.924 0-9.106 6.87-10.09 9.822-10.09 3.668 0 9.822 1.31 9.822 10.09 0 .308.003.613.008.92l.01.553 1.437.87c.08.047.286.172.286.837v1.75c0 .653-.18.77-.256.82l-1.68 1.103-.104.357s-.098.347-.16.52l-.275.8c-1.228 3.602-3.282 9.63-8.425 9.63h-1.322c-5.133 0-7.204-6.057-8.44-9.676l-.262-.756c-.06-.17-.157-.514-.16-.52l-.1-.355-1.682-1.104c-.076-.05-.255-.167-.255-.82v-1.75zm35.17 34.442c-1.01-5.733-4.702-10.755-9.876-13.428-2.652-1.37-5.635-2.095-8.623-2.095h-10.22c-2.99 0-5.97.725-8.623 2.095-5.174 2.674-8.867 7.692-9.878 13.428l-2.947 16.712 1.97.348L53.4 93.314c.904-5.125 4.204-9.61 8.828-11.998 2.37-1.226 5.034-1.873 7.704-1.873h10.222c2.67 0 5.334.647 7.705 1.873 4.622 2.39 7.92 6.873 8.825 11.998l2.95 16.71 1.968-.347-2.95-16.71z"/><defs><path id="a" d="M68.257 95.117c0-.738-.586-1.325-1.325-1.325-.74 0-1.325.587-1.325 1.325s.586 1.324 1.325 1.324c.738 0 1.325-.585 1.325-1.323m.89-3.096c.738 0 1.325-.585 1.325-1.323 0-.74-.587-1.325-1.325-1.325-.74 0-1.325.737-1.325 1.325 0 .74.586 1.324 1.325 1.324m11.34 10.31c-.738 0-1.325.587-1.325 1.324 0 .74.587 1.326 1.324 1.326.74 0 1.326-.586 1.326-1.326 0-.736-.587-1.324-1.326-1.324m2.064-4.268c-.74 0-1.325.586-1.325 1.324 0 .73.586 1.316 1.316 1.325h.02c.73-.008 1.315-.586 1.315-1.324s-.586-1.324-1.325-1.324m.74-4.27c-.74 0-1.327.587-1.327 1.325s.587 1.324 1.326 1.324c.737 0 1.323-.585 1.323-1.323 0-.737-.595-1.325-1.324-1.325m-8.256-29.19c.73 0 1.325.597 1.325 1.325 0 .73-.587 1.316-1.317 1.325H75.025c-.728-.01-1.316-.595-1.316-1.325s.596-1.325 1.324-1.325m0 4.27c.73 0 1.325.597 1.325 1.325 0 .73-.587 1.316-1.317 1.325H75.025c-.728-.01-1.316-.595-1.316-1.325 0-.728.596-1.325 1.324-1.325m-3.862 37.453c-1.77.294-3.095.88-4.562 1.91-1.476 1.175-2.357.74-2.65-1.03-.293-1.912-.445-5.746-.445-5.746v-2.804c.292-2.944.586-5.887 2.205-8.396.587-1.03 1.62-2.064 2.51-2.65 1.03-.738 1.91-.444 2.507.738.294.74 2.65 10.905 2.65 15.316-.01 1.78-.303 2.367-2.215 2.66m2.092-17.842c-.728 0-1.325-.598-1.325-1.326s.596-1.324 1.324-1.324c.73 0 1.326.596 1.326 1.324 0 .74-.587 1.326-1.326 1.326m.445-5.595c0-.738.586-1.324 1.324-1.324.74 0 1.325.586 1.325 1.324 0 .74-.587 1.325-1.326 1.325-.738 0-1.325-.586-1.325-1.325m1.91 4.27c0-.73.6-1.325 1.325-1.325.73 0 1.326.596 1.326 1.324s-.595 1.326-1.325 1.326c-.726 0-1.324-.587-1.324-1.326m10.944 14.313s-.15 3.833-.445 5.745c-.293 1.77-1.175 2.205-2.65 1.03-1.477-1.03-2.802-1.618-4.563-1.91-1.912-.295-2.206-.88-2.206-2.65 0-4.42 2.358-14.587 2.65-15.316.587-1.176 1.48-1.48 2.51-.74.88.587 1.91 1.62 2.51 2.65 1.618 2.51 1.91 5.453 2.204 8.396-.01.88-.01 1.912-.01 2.793m-16.83.86c-.74 0-1.326.587-1.326 1.324 0 .74.587 1.326 1.325 1.326.74 0 1.326-.586 1.326-1.326 0-.736-.588-1.324-1.327-1.324m-.89-2.943c0-.738-.586-1.324-1.324-1.324-.74 0-1.327.586-1.327 1.324s.587 1.325 1.326 1.325c.737 0 1.324-.588 1.324-1.325m12.088-7.366c.74 0 1.325-.585 1.325-1.323 0-.74-.586-1.325-1.325-1.325-.738 0-1.324.737-1.324 1.325-.01.74.585 1.324 1.324 1.324"/></defs><clipPath id="b"><use xlink:href="#a" overflow="visible"/></clipPath><g clip-path="url(#b)"><defs><path id="c" d="M-541.54-442.54h1440v1024h-1440z"/></defs><clipPath id="d"><use xlink:href="#c" overflow="visible"/></clipPath><path clip-path="url(#d)" fill="#343434" d="M58.515 59.602h33.057v54.3H58.515z"/></g></svg>