<svg xmlns="http://www.w3.org/2000/svg" width="46" height="46" viewBox="0 0 46 46"><path fill="none" stroke="#D1CFCF" stroke-width="1.5" stroke-miterlimit="10" d="M27.51-35.948h-7.936M16.042-59.81h15V-53h-15zM16.042-40.792h15v9.277h-15zM13.308-40.792h20.47"/><g fill="none" stroke="#D1CFCF" stroke-width="1.5" stroke-miterlimit="10"><path d="M15.792-35.948h-8.25V-53h32v17.052h-8.25"/><circle cx="32.181" cy="-48.041" r="1.691"/></g><path fill="#5E5F5F" d="M31.792 15.416v-6.81h-16.5v6.81h-8.5V33.97h8.5v4.434h16.5V33.97h8.5V15.416h-8.5zm-15-5.31h13.5v5.31h-13.5v-5.31zm13.5 26.797h-13.5v-7.777h13.5v7.777zm8.5-4.434h-7v-3.345h1.984v-1.5H13.308v1.5h1.984v3.344h-7V16.915h30.5V32.47zm-6.61-8.902c1.346 0 2.44-1.095 2.44-2.44s-1.095-2.442-2.44-2.442-2.442 1.095-2.442 2.44 1.094 2.442 2.44 2.442zm0-3.383c.52 0 .94.422.94.94s-.422.942-.94.942-.942-.422-.942-.94.42-.942.94-.942zM27.51 32.47h-7.938v1.5h7.937v-1.5z"/><text transform="translate(-47.54 -24.667)" fill="#D6CECE" font-family="'MyriadPro-Regular'" font-size="12">Stroke</text><text transform="translate(-92.85 44.166)" fill="#D6CECE" font-family="'MyriadPro-Regular'" font-size="12">Outlined stroke</text><path fill-rule="evenodd" clip-rule="evenodd" fill="#5E5F5F" d="M126.507-34.136H110.49v-21.52h14.74l1.663-1.5H108.99v24.52h19.017V-49.79l-1.5 1.352"/><path fill-rule="evenodd" clip-rule="evenodd" fill="#5E5F5F" d="M116.23-43.304l3.862-.937-2.58-2.84-1.374 3.677c-.025.058.09.1.09.1zm15.61-16.758l2.676 2.973-13.673 12.312-2.677-2.973 13.673-12.312z"/><path fill="none" stroke="#A898AB" stroke-width="1.5" stroke-miterlimit="10" d="M109.785-56.4h17.465v22.983h-17.465z"/></svg>